<?xml version="1.0" encoding="UTF-8"?>
<svg width="148px" height="72px" viewBox="0 0 148 72" version="1.1" xmlns="http://www.w3.org/2000/svg" xmlns:xlink="http://www.w3.org/1999/xlink">
    <!-- Generator: Sketch 48.2 (47327) - http://www.bohemiancoding.com/sketch -->
    <title>Rectangle 74</title>
    <desc>Created with Sketch.</desc>
    <defs></defs>
    <g id="Page-1" stroke="none" stroke-width="1" fill="none" fill-rule="evenodd">
        <g id="Group-96" transform="translate(0.000000, -2.000000)">
            <rect id="Rectangle-74" x="0" y="0" width="148" height="74"></rect>
            <g id="Group-91-Copy" transform="translate(3.000000, 16.000000)">
                <g id="Group">
                    <ellipse id="Oval" transform="translate(27.075615, 14.592575) rotate(-13.285796) translate(-27.075615, -14.592575) " cx="27.0756148" cy="14.5925755" rx="6.93333516" ry="6.96792497"></ellipse>
                    <path d="M38.1822394,4.39090909 L32.1034749,4.39090909 C28.7791506,1.90909091 24.8849421,0.572727273 20.4208494,0.572727273 C9.21312741,0.572727273 0.284942085,9.73636364 0.284942085,20.9045455 C0.284942085,32.2636364 9.30810811,41.3318182 20.4208494,41.3318182 C31.5335907,41.3318182 40.5567568,32.2636364 40.5567568,20.9045455 C40.5567568,17.5636364 39.7019305,14.3181818 38.0872587,11.3590909 L38.0872587,4.39090909 L38.1822394,4.39090909 Z M27.0694981,21.4772727 C23.2702703,21.4772727 20.1359073,18.3272727 20.1359073,14.5090909 C20.1359073,10.7863636 23.2702703,7.54090909 27.0694981,7.54090909 C30.8687259,7.54090909 34.0030888,10.6909091 34.0030888,14.5090909 C33.9081081,18.6136364 30.8687259,21.4772727 27.0694981,21.4772727 Z" id="Shape" fill="#F9D10B" fill-rule="nonzero"></path>
                </g>
                <g id="Group-90" transform="translate(46.000000, 3.000000)">
                    <g id="Group" transform="translate(0.267932, 0.467532)" fill="#333333" fill-rule="nonzero">
                        <polygon id="Shape" points="16.4103038 4.77272727 18.9912426 18.3116883 21.1898201 17.4350649 18.6088813 3.8961039"></polygon>
                        <polygon id="Shape" points="3.02765799 3.7987013 0.064357844 17.4350649 2.16734504 18.3116883 5.22623551 4.67532468"></polygon>
                        <polygon id="Shape" points="12.2999197 0.584415584 12.2999197 0.487012987 9.91016154 0.487012987 9.91016154 19.8701299 7.71158402 19.8701299 7.71158402 22.2077922 12.2999197 22.2077922"></polygon>
                    </g>
                    <g id="Group" transform="translate(25.121417, 0.467532)" fill="#333333" fill-rule="nonzero">
                        <polygon id="Shape" points="4.8438742 0.487012987 4.8438742 1.55844156 0.064357844 1.55844156 0.064357844 3.40909091 4.8438742 3.40909091 4.8438742 4.38311688 7.32922271 4.38311688 7.32922271 3.31168831 13.1602327 3.31168831 13.1602327 4.38311688 15.5499908 4.38311688 15.5499908 3.31168831 20.4250975 3.31168831 20.4250975 1.55844156 15.5499908 1.55844156 15.5499908 0.487012987 13.1602327 0.487012987 13.1602327 1.55844156 7.32922271 1.55844156 7.32922271 0.487012987"></polygon>
                        <path d="M3.12324831,10.7142857 C3.12324831,10.7142857 17.1750264,10.7142857 17.0794361,10.7142857 L16.9838458,11.6883117 L13.7337746,11.6883117 L13.7337746,13.3441558 L19.2780136,13.3441558 L19.9471459,8.86363636 L9.62339056,8.86363636 L10.0057519,7.98701299 L7.32922271,7.5974026 L6.66009042,8.86363636 L0.733490134,8.86363636 L0.733490134,16.2662338 L18.1309297,16.2662338 L17.8441587,20.4545455 L9.71898089,20.4545455 L9.71898089,22.2077922 L20.0427362,22.2077922 L20.7118685,14.512987 L3.12324831,14.512987 L3.12324831,10.7142857 Z" id="Shape"></path>
                        <polygon id="Shape" points="9.81457122 13.4415584 11.8219681 12.4675325 6.56450009 11.3961039 4.46151289 12.4675325"></polygon>
                        <rect id="Rectangle-path" x="0.159948171" y="17.5324675" width="16.4415363" height="1.75324675"></rect>
                        <polygon id="Shape" points="20.3295072 8.18181818 20.3295072 5.25974026 0.351128826 5.25974026 0.351128826 7.88961039 2.64529668 7.88961039 2.64529668 6.91558442 18.0353394 6.91558442 18.0353394 8.18181818"></polygon>
                    </g>
                    <path d="M67.7234708,20.4350649 L61.2233286,20.4350649 L61.2233286,11.474026 L69.6352774,11.474026 L69.6352774,2.22077922 C69.6352774,2.22077922 67.3411095,2.22077922 67.3411095,2.22077922 L67.3411095,9.13636364 L61.2233286,9.13636364 L61.2233286,1.34415584 L58.8335704,1.34415584 L58.8335704,9.13636364 L52.7157895,9.13636364 L52.7157895,2.22077922 L50.4216216,2.22077922 L50.4216216,11.474026 L58.8335704,11.474026 L58.8335704,20.4350649 L52.3334282,20.4350649 L52.3334282,14.2987013 L50.0392603,14.2987013 L50.0392603,22.7727273 L70.0176387,22.7727273 L70.0176387,14.2987013 L67.7234708,14.2987013 L67.7234708,20.4350649 Z" id="Shape" fill="#333333" fill-rule="nonzero"></path>
                    <g id="Group" transform="translate(74.128023, 1.181818)">
                        <path d="M18.4489331,2.5 L2.58093883,2.5 L2.58093883,19.2532468 L18.4489331,19.2532468 L18.4489331,2.5 Z M17.0150782,6.59090909 L11.6620199,6.59090909 L11.6620199,8.92857143 L16.5371266,8.92857143 L16.5371266,11.2662338 L11.6620199,11.2662338 L11.6620199,15.2597403 L16.9194879,15.2597403 L16.9194879,17.4025974 L4.30156472,17.4025974 L4.30156472,15.2597403 L9.36785206,15.2597403 L9.36785206,11.2662338 L4.77951636,11.2662338 L4.77951636,8.92857143 L9.36785206,8.92857143 L9.36785206,6.59090909 L4.30156472,6.59090909 L4.30156472,4.25324675 L17.0150782,4.25324675 L17.0150782,6.59090909 Z M17.0150782,13.7012987 L14.8165007,14.2857143 L12.8091038,12.5324675 L15.1032717,11.9480519 L17.0150782,13.7012987 Z" id="Shape"></path>
                        <polygon id="Shape" fill="#333333" fill-rule="nonzero" points="4.30156472 6.59090909 9.36785206 6.59090909 9.36785206 8.92857143 4.77951636 8.92857143 4.77951636 11.1688312 9.36785206 11.1688312 9.36785206 15.1623377 4.30156472 15.1623377 4.30156472 17.3051948 16.9194879 17.3051948 16.9194879 15.1623377 11.6620199 15.1623377 11.6620199 11.1688312 16.5371266 11.1688312 16.5371266 8.92857143 11.6620199 8.92857143 11.6620199 6.59090909 17.0150782 6.59090909 17.0150782 4.25324675 4.30156472 4.25324675"></polygon>
                        <path d="M0.286770982,21.4935065 L20.743101,21.4935065 L20.743101,0.162337662 L0.286770982,0.162337662 L0.286770982,21.4935065 Z M2.48534851,2.5 L18.3533428,2.5 L18.3533428,19.2532468 L2.48534851,19.2532468 L2.48534851,2.5 Z" id="Shape" fill="#333333" fill-rule="nonzero"></path>
                        <polygon id="Shape" fill="#333333" fill-rule="nonzero" points="12.8091038 12.5324675 14.7209104 14.3831169 17.0150782 13.7012987 15.0076814 11.9480519"></polygon>
                    </g>
                </g>
                <path d="M47.2047388,32.0580645 L47.9235326,32.116129 C47.8324179,32.7741935 47.7413032,33.383871 47.6501885,33.9451613 L49.1485191,33.9451613 L49.1485191,34.3516129 C49.0675283,35.9193548 48.7840603,37.2645161 48.2981152,38.4064516 C48.7739365,38.8806452 49.1687668,39.3064516 49.4724825,39.6935484 L48.9865374,40.2354839 C48.7030695,39.8774194 48.3689822,39.4903226 47.9741519,39.083871 C47.5691976,39.8193548 47.0731287,40.4580645 46.4656974,41 L46.0101239,40.4483871 C46.6074313,39.9258065 47.0933764,39.3064516 47.4780829,38.5709677 C47.0731287,38.1741935 46.6378029,37.7677419 46.1721055,37.3419355 C46.4150781,36.5 46.6276791,35.5903226 46.8099085,34.6129032 L46,34.6129032 L46,33.9451613 L46.9313947,33.9451613 C47.0326333,33.3354839 47.123748,32.7064516 47.2047388,32.0580645 Z M47.7817986,37.9032258 C48.1665051,36.9354839 48.3892299,35.8419355 48.4600969,34.6129032 L47.5388261,34.6129032 C47.3464728,35.6290323 47.1541195,36.4709677 46.9516424,37.1387097 C47.2452342,37.4 47.5185784,37.6516129 47.7817986,37.9032258 Z M54.4939149,36.8580645 L54.4939149,40.9806452 L53.7953689,40.9806452 L53.7953689,40.4 L50.697469,40.4 L50.697469,40.9806452 L49.998923,40.9806452 L49.998923,36.8580645 L54.4939149,36.8580645 Z M50.697469,39.7419355 L53.7953689,39.7419355 L53.7953689,37.4967742 L50.697469,37.4967742 L50.697469,39.7419355 Z M49.6040926,35.9870968 L49.4927302,35.3580645 C50.0799138,35.0677419 50.8088314,33.983871 51.679483,32.0870968 L52.3679052,32.3096774 C51.7604739,33.5677419 51.1631664,34.5645161 50.5557351,35.3096774 C51.6896069,35.2419355 52.7728595,35.1258065 53.7953689,34.9709677 C53.5119009,34.4387097 53.228433,33.9451613 52.9348411,33.5 L53.5625202,33.2096774 C54.1193323,34.0612903 54.6457728,34.9903226 55.1317178,36.0064516 L54.4534195,36.316129 C54.3319332,36.0548387 54.2205708,35.8032258 54.0990845,35.5612903 C52.7526117,35.7451613 51.2542811,35.8903226 49.6040926,35.9870968 Z M56.8932687,32.4741935 L64.4962843,32.4741935 L64.4962843,33.1516129 L61.1857835,33.1516129 L61.1857835,35.783871 L65.2049542,35.783871 L65.2049542,36.4806452 L61.1857835,36.4806452 L61.1857835,39.916129 C61.1857835,40.5451613 60.8415724,40.8645161 60.1632741,40.8645161 L58.5839526,40.8645161 L58.4320948,40.1967742 C58.9484114,40.216129 59.4444803,40.2354839 59.9101777,40.2354839 C60.2645127,40.2354839 60.4467421,40.0709677 60.4467421,39.7419355 L60.4467421,36.4806452 L56.2554658,36.4806452 L56.2554658,35.783871 L60.4467421,35.783871 L60.4467421,33.1516129 L56.8932687,33.1516129 L56.8932687,32.4741935 Z M68.9305331,32.9580645 C69.5987076,32.9580645 70.1453958,33.1419355 70.5807216,33.5096774 C71.0059235,33.8774194 71.2286484,34.3709677 71.2286484,34.9709677 C71.2286484,35.5709677 70.9856758,36.1129032 70.5199785,36.5967742 C70.2668821,36.8483871 69.7708131,37.2258065 69.0216478,37.7096774 C68.100377,38.3 67.5739365,38.8322581 67.4423263,39.2967742 L71.2387722,39.2967742 L71.2387722,40.0032258 L66.4198169,40.0032258 C66.4198169,39.3741935 66.6526656,38.8032258 67.1386107,38.2903226 C67.4220786,37.9806452 67.9383953,37.5645161 68.7078083,37.0612903 C69.2747442,36.6741935 69.6493269,36.3935484 69.8416801,36.2 C70.2061389,35.8225806 70.3984922,35.4064516 70.3984922,34.9612903 C70.3984922,34.5354839 70.2668821,34.216129 70.0036618,33.983871 C69.7404416,33.7516129 69.3658589,33.6354839 68.9001616,33.6354839 C68.4040926,33.6354839 68.0193861,33.7903226 67.7561659,34.1193548 C67.4726979,34.4290323 67.3208401,34.8935484 67.3107162,35.5032258 L66.48056,35.5032258 C66.48056,34.7290323 66.7134087,34.1096774 67.1588584,33.6548387 C67.604308,33.1903226 68.2016155,32.9580645 68.9305331,32.9580645 Z M74.903608,32.9580645 C75.7641357,32.9580645 76.4120625,33.316129 76.8575121,34.0516129 C77.2422186,34.6709677 77.4345719,35.5032258 77.4345719,36.5483871 C77.4345719,37.5935484 77.2422186,38.4258065 76.8575121,39.0451613 C76.4120625,39.7709677 75.7641357,40.1387097 74.903608,40.1387097 C74.0329564,40.1387097 73.3850296,39.7709677 72.9497038,39.0451613 C72.5649973,38.4258065 72.372644,37.5935484 72.372644,36.5483871 C72.372644,35.5032258 72.5649973,34.6709677 72.9497038,34.0516129 C73.3850296,33.316129 74.0329564,32.9580645 74.903608,32.9580645 Z M74.903608,33.6354839 C74.2556812,33.6354839 73.7899838,33.9645161 73.5065159,34.6322581 C73.3040388,35.0967742 73.2028002,35.7354839 73.2028002,36.5483871 C73.2028002,37.3516129 73.3040388,37.9903226 73.5065159,38.4645161 C73.7899838,39.1225806 74.2556812,39.4612903 74.903608,39.4612903 C75.5515347,39.4612903 76.0172321,39.1225806 76.3007001,38.4645161 C76.5031772,37.9903226 76.6145396,37.3516129 76.6145396,36.5483871 C76.6145396,35.7354839 76.5031772,35.0967742 76.3007001,34.6322581 C76.0172321,33.9645161 75.5515347,33.6354839 74.903608,33.6354839 Z M80.9779214,32.9580645 C81.8384491,32.9580645 82.4863759,33.316129 82.9318255,34.0516129 C83.316532,34.6709677 83.5088853,35.5032258 83.5088853,36.5483871 C83.5088853,37.5935484 83.316532,38.4258065 82.9318255,39.0451613 C82.4863759,39.7709677 81.8384491,40.1387097 80.9779214,40.1387097 C80.1072698,40.1387097 79.459343,39.7709677 79.0240172,39.0451613 C78.6393107,38.4258065 78.4469575,37.5935484 78.4469575,36.5483871 C78.4469575,35.5032258 78.6393107,34.6709677 79.0240172,34.0516129 C79.459343,33.316129 80.1072698,32.9580645 80.9779214,32.9580645 Z M80.9779214,33.6354839 C80.3299946,33.6354839 79.8642973,33.9645161 79.5808293,34.6322581 C79.3783522,35.0967742 79.2771136,35.7354839 79.2771136,36.5483871 C79.2771136,37.3516129 79.3783522,37.9903226 79.5808293,38.4645161 C79.8642973,39.1225806 80.3299946,39.4612903 80.9779214,39.4612903 C81.6258481,39.4612903 82.0915455,39.1225806 82.3750135,38.4645161 C82.5774906,37.9903226 82.688853,37.3516129 82.688853,36.5483871 C82.688853,35.7354839 82.5774906,35.0967742 82.3750135,34.6322581 C82.0915455,33.9645161 81.6258481,33.6354839 80.9779214,33.6354839 Z M87.0522348,32.9580645 C87.9127625,32.9580645 88.5606893,33.316129 89.0061389,34.0516129 C89.3908454,34.6709677 89.5831987,35.5032258 89.5831987,36.5483871 C89.5831987,37.5935484 89.3908454,38.4258065 89.0061389,39.0451613 C88.5606893,39.7709677 87.9127625,40.1387097 87.0522348,40.1387097 C86.1815832,40.1387097 85.5336564,39.7709677 85.0983306,39.0451613 C84.7136241,38.4258065 84.5212709,37.5935484 84.5212709,36.5483871 C84.5212709,35.5032258 84.7136241,34.6709677 85.0983306,34.0516129 C85.5336564,33.316129 86.1815832,32.9580645 87.0522348,32.9580645 Z M87.0522348,33.6354839 C86.404308,33.6354839 85.9386107,33.9645161 85.6551427,34.6322581 C85.4526656,35.0967742 85.351427,35.7354839 85.351427,36.5483871 C85.351427,37.3516129 85.4526656,37.9903226 85.6551427,38.4645161 C85.9386107,39.1225806 86.404308,39.4612903 87.0522348,39.4612903 C87.7001616,39.4612903 88.1658589,39.1225806 88.4493269,38.4645161 C88.651804,37.9903226 88.7631664,37.3516129 88.7631664,36.5483871 C88.7631664,35.7354839 88.651804,35.0967742 88.4493269,34.6322581 C88.1658589,33.9645161 87.7001616,33.6354839 87.0522348,33.6354839 Z M92.6406031,33.8580645 C92.2154012,34.5451613 91.6889607,35.116129 91.0410339,35.5806452 L90.5550889,35 C91.5775983,34.2645161 92.2660205,33.2677419 92.6203554,32.0096774 L93.3796446,32.1451613 C93.2682822,32.5129032 93.1366721,32.8516129 92.9949381,33.1806452 L99.2818525,33.1806452 L99.2818525,33.8580645 L96.1029618,33.8580645 L96.1029618,35.4064516 L98.9275175,35.4064516 L98.9275175,36.0741935 L96.1029618,36.0741935 L96.1029618,38.1645161 L99.6058158,38.1645161 L99.6058158,38.8419355 L96.1029618,38.8419355 L96.1029618,41 L95.3639203,41 L95.3639203,38.8419355 L90.686699,38.8419355 L90.686699,38.1645161 L92.3571352,38.1645161 L92.3571352,35.4064516 L95.3639203,35.4064516 L95.3639203,33.8580645 L92.6406031,33.8580645 Z M93.0860528,38.1645161 L95.3639203,38.1645161 L95.3639203,36.0741935 L93.0860528,36.0741935 L93.0860528,38.1645161 Z M101.002908,33.2677419 L103.5035,33.2677419 C103.695854,32.8612903 103.878083,32.4451613 104.060312,32 L104.779106,32.1548387 C104.617124,32.5419355 104.455143,32.9096774 104.293161,33.2677419 L109.456327,33.2677419 L109.456327,33.9451613 L103.969198,33.9451613 C103.483253,34.8548387 102.956812,35.6483871 102.379752,36.3354839 L105.113193,36.3354839 L105.113193,34.9032258 L105.852235,34.9032258 L105.852235,36.3354839 L109.041249,36.3354839 L109.041249,36.983871 L105.852235,36.983871 L105.852235,40.0612903 C105.852235,40.6516129 105.528271,40.9516129 104.890468,40.9516129 L103.837588,40.9516129 L103.68573,40.2645161 C104.019817,40.2935484 104.333656,40.3129032 104.637372,40.3129032 C104.951212,40.3129032 105.113193,40.1677419 105.113193,39.8870968 L105.113193,36.983871 L101.610339,36.983871 L101.438234,36.3741935 C102.055789,35.7354839 102.632849,34.9322581 103.169413,33.9451613 L101.002908,33.9451613 L101.002908,33.2677419 Z M103.128918,37.7483871 L103.63511,38.1741935 C102.966936,39.0548387 102.13678,39.8290323 101.16489,40.4870968 L100.699192,39.9064516 C101.660959,39.2870968 102.470867,38.5709677 103.128918,37.7483871 Z M107.512547,37.7387097 C108.433818,38.4935484 109.203231,39.2580645 109.83091,40.0225806 L109.294346,40.5258065 C108.747658,39.7903226 107.988368,39.016129 107.026602,38.183871 L107.512547,37.7387097 Z M112.179645,34.7290323 L118.628541,34.7290323 L118.628541,37.4387097 L115.803985,37.4387097 L115.803985,40.0225806 C115.803985,40.6032258 115.490145,40.8935484 114.882714,40.8935484 L113.789338,40.8935484 L113.627356,40.2258065 C113.971567,40.2548387 114.305654,40.2741935 114.629618,40.2741935 C114.923209,40.2741935 115.075067,40.1290323 115.075067,39.8483871 L115.075067,37.4387097 L112.179645,37.4387097 L112.179645,34.7290323 Z M117.899623,36.7709677 L117.899623,35.3967742 L112.908562,35.3967742 L112.908562,36.7709677 L117.899623,36.7709677 Z M115.277544,32.0483871 C115.439526,32.3774194 115.591384,32.7354839 115.733118,33.1419355 L119.883899,33.1419355 L119.883899,33.7903226 L110.914163,33.7903226 L110.914163,33.1419355 L114.994076,33.1419355 C114.852342,32.7935484 114.700485,32.4645161 114.528379,32.1741935 L115.277544,32.0483871 Z M117.585784,38.0580645 C118.507054,38.7935484 119.286591,39.5193548 119.91427,40.2354839 L119.377706,40.7483871 C118.820894,40.0516129 118.061605,39.3064516 117.109962,38.5129032 L117.585784,38.0580645 Z M113.202154,38.0677419 L113.708347,38.5129032 C113.06042,39.3645161 112.270759,40.1193548 111.319117,40.7580645 L110.863543,40.1967742 C111.784814,39.5967742 112.564351,38.8806452 113.202154,38.0677419 Z M121.078514,34.6419355 L125.016694,34.6419355 C125.097684,34.0806452 125.13818,33.5 125.148304,32.8903226 L125.148304,32.1064516 L125.897469,32.1064516 L125.897469,32.7354839 C125.897469,33.4129032 125.84685,34.0419355 125.765859,34.6419355 L129.967259,34.6419355 L129.967259,35.3193548 L125.97846,35.3193548 C126.68713,37.5064516 128.084222,39.1903226 130.159612,40.3709677 L129.704039,40.9322581 C127.669144,39.7322581 126.272052,38.0483871 125.512763,35.8612903 C124.885083,38.2129032 123.487991,39.9258065 121.33161,41 L120.876037,40.4193548 C123.032418,39.4032258 124.368767,37.7 124.895207,35.3193548 L121.078514,35.3193548 L121.078514,34.6419355 Z M139.919009,34.0612903 L139.919009,36.2290323 L139.200215,36.2290323 L139.200215,34.7290323 L132.083145,34.7290323 L132.083145,36.2290323 L131.374475,36.2290323 L131.374475,34.0612903 L137.175444,34.0612903 C137.620894,33.4419355 138.0056,32.7645161 138.329564,32.0387097 L139.068605,32.3 C138.71427,32.9967742 138.349812,33.5774194 137.965105,34.0612903 L139.919009,34.0612903 Z M132.923425,35.5516129 L138.380183,35.5516129 L138.380183,36.1709677 C137.712009,36.5774194 136.972967,36.9741935 136.142811,37.3612903 L136.142811,37.8548387 L140,37.8548387 L140,38.5129032 L136.142811,38.5129032 L136.142811,40.1483871 C136.142811,40.6709677 135.849219,40.9322581 135.282283,40.9322581 L133.996554,40.9322581 L133.824448,40.2935484 C134.188907,40.3032258 134.593861,40.3129032 135.029187,40.3129032 C135.272159,40.3129032 135.40377,40.1774194 135.40377,39.9064516 L135.40377,38.5129032 L131.303608,38.5129032 L131.303608,37.8548387 L135.40377,37.8548387 L135.40377,37.0516129 C136.254173,36.6935484 136.891976,36.4032258 137.337426,36.1709677 L132.923425,36.1709677 L132.923425,35.5516129 Z M132.812062,32.183871 C133.176521,32.6483871 133.530856,33.1516129 133.85482,33.7032258 L133.227141,34.0032258 C132.882929,33.4419355 132.528595,32.9387097 132.154012,32.4935484 L132.812062,32.183871 Z M135.262036,32 C135.596123,32.483871 135.920086,33.016129 136.223802,33.5967742 L135.575875,33.9064516 C135.272159,33.3064516 134.948196,32.7741935 134.603985,32.3096774 L135.262036,32 Z" id="始于2000年东京大学" fill="#333333"></path>
            </g>
        </g>
    </g>
</svg>