<?xml version="1.0" encoding="utf-8"?>
<!-- Generator: Adobe Illustrator 22.0.0, SVG Export Plug-In . SVG Version: 6.00 Build 0)  -->
<svg version="1.1" id="图层_1" xmlns="http://www.w3.org/2000/svg" xmlns:xlink="http://www.w3.org/1999/xlink" x="0px" y="0px"
	 viewBox="0 0 148 72" style="enable-background:new 0 0 148 72;" xml:space="preserve">
<style type="text/css">
	.st0{enable-background:new    ;}
	.st1{stroke:#000000;stroke-width:0.5;stroke-miterlimit:10;}
	.st2{fill:#F9D10B;}
</style>
<title>Rectangle 74</title>
<desc>Created with Sketch.</desc>
<g class="st0">
	<path class="st1" d="M52.4,22.6l-3.8,11.1l-1.7-0.6L50.7,22L52.4,22.6z M58.7,16.7v22h-5.5v-1.8h3.7V16.7H58.7z M64.7,22l3.8,11.1
		l-1.7,0.6L63,22.6L64.7,22z"/>
	<path class="st1" d="M93.7,19.8h-4.9v1.3H87v-1.3h-8.6v1.3h-1.8v-1.3h-4.9V18h4.9v-1.3h1.8V18H87v-1.3h1.8V18h4.9V19.8z M72.3,25.8
		v-3.9h20.9v3.9h-1.8v-2.1h-8.6v1.6h7.4v4.7h-1.8V27H77.4v4.1h14.6v7.5h-5.7v-1.8h3.9v-4H75.7v-7.7H81v-1.6h-6.9v2.1H72.3z
		 M88.2,36.2H72.4v-1.8h15.8V36.2L88.2,36.2z M83.1,30.5l-1.9-1.9l1.3-1.3l1.9,1.9L83.1,30.5z"/>
	<path class="st1" d="M118,28.9v9.7H97.4v-9.7h1.8v7.9h7.6v-9.9h-9.4v-8.4h1.8v6.6h7.6v-8.4h1.8v8.4h7.6v-6.6h1.8v8.4h-9.4v10h7.6
		v-7.9H118z"/>
	<path class="st1" d="M142.9,17.5v21.2h-20.6V17.5C122.4,17.5,142.9,17.5,142.9,17.5z M124.2,19.2v17.7h17V19.2H124.2z M139.6,34.7
		h-14v-1.8h6.1v-4.5h-5.2v-1.8h5.2v-3.4h-5.8v-1.8h13.3v1.8h-5.7v3.4h5.2v1.8h-5.2v4.5h6.1L139.6,34.7L139.6,34.7z M137.2,32.3
		l-1.9-1.9l1.3-1.3l1.9,1.9L137.2,32.3z"/>
</g>
<g>
	<path d="M48.7,44.4h8.8v11.2h-0.7v-1h-7.3v1h-0.7L48.7,44.4L48.7,44.4z M49.4,45.1v4.1h7.3v-4.1H49.4z M49.4,49.8v4.3h7.3v-4.3
		H49.4z"/>
	<path d="M62.1,54.2c0.5-0.3,1-0.7,1.6-1.1c0,0.1,0,0.2,0,0.4c0,0.2,0,0.3,0,0.4c-0.9,0.5-1.6,1-2.3,1.5L61,54.9
		c0.2-0.3,0.4-0.6,0.4-1v-5.3h-1.4v-0.6H62L62.1,54.2L62.1,54.2z M62.4,46.2c-0.6-0.6-1.2-1.2-1.9-1.9l0.5-0.4
		c0.8,0.7,1.5,1.3,1.9,1.8L62.4,46.2z M63.5,44.8v-0.6h8.2v0.6h-4.8l-0.3,1.8h4.2v2.7h1.5v0.6h-9.1v-0.6h2.2l0.4-2.1h-1.9v-0.6h2.1
		l0.3-1.8H63.5z M64.4,51.4h6.7v4.3h-0.7v-0.8H65v0.8h-0.7L64.4,51.4L64.4,51.4z M65.1,52v2.3h5.4V52H65.1z M70.1,47.2h-3.6
		l-0.4,2.1h4V47.2z"/>
	<path d="M80.4,46l0.6-0.4c0.1,0.2,0.3,0.5,0.6,0.9c0.5,0.7,0.8,1.2,1,1.4l-0.6,0.4c0,0-0.1-0.1-0.1-0.2c-0.1-0.1-0.2-0.4-0.4-0.7
		c-1,0.3-1.9,0.7-2.9,1.2c-0.3,0.1-0.6,0.3-0.8,0.4l-0.6-0.6c0.2-0.2,0.4-0.6,0.4-1v-3c1.5-0.1,2.9-0.4,4.2-0.7l0.3,0.6
		c-1.3,0.3-2.6,0.5-3.8,0.6v2.9c0.6-0.2,1.5-0.6,2.8-1.1c0-0.1-0.1-0.2-0.2-0.3C80.6,46.3,80.5,46.1,80.4,46z M78.1,49.8h9.4v5.9
		h-0.7v-0.6h-8.1v0.6h-0.7V49.8L78.1,49.8z M78.7,50.4v1.8h3.7v-1.8C82.4,50.4,78.7,50.4,78.7,50.4z M78.7,52.8v1.7h3.7v-1.7H78.7z
		 M82.7,45v-0.6h5.5c0,0.4,0,1.1-0.1,2.1c0,0.2,0,0.4,0,0.4c0,1.3-0.6,1.9-1.8,1.8c-0.6,0-1,0-1.2,0c0-0.2,0-0.4-0.1-0.7
		c0.2,0,0.7,0,1.3,0c0.8,0.1,1.2-0.3,1.2-1.2c0-0.1,0-0.3,0-0.7c0-0.6,0-1,0-1.3h-2.7c0.1,2-0.7,3.5-2.2,4.4
		c-0.1-0.2-0.3-0.3-0.5-0.4c1.5-0.9,2.2-2.2,2.1-3.9C84.1,45,82.7,45,82.7,45z M86.8,50.4h-3.7v1.8h3.7V50.4z M83.1,52.8v1.7h3.7
		v-1.7H83.1z"/>
	<path d="M95.7,50.8l2.8-1.6h-6.3v-0.7h7.2v0.8l-2.9,1.7v0.5h5.5v0.7h-5.5v1.9c0,1-0.4,1.5-1.5,1.5c-0.5,0-1.1,0-1.7,0
		c0-0.1,0-0.1,0-0.3c0-0.2-0.1-0.4-0.1-0.6c0.5,0,1,0,1.6,0c0.7,0.1,1-0.2,1-0.9v-1.7h-6v-0.7h6L95.7,50.8L95.7,50.8z M90.2,46.4
		h11.4v2.4h-0.7V47h-10v1.7h-0.7L90.2,46.4L90.2,46.4z M91.2,44.2l0.6-0.4c0.6,0.7,1.1,1.3,1.5,1.8l-0.6,0.4
		C92.3,45.6,91.8,45,91.2,44.2z M94.6,43.9l0.6-0.3c0.5,0.6,0.9,1.3,1.4,2l-0.7,0.4C95.5,45.2,95.1,44.5,94.6,43.9z M98.7,46.2
		l-0.6-0.4c0.6-0.6,1.2-1.3,1.7-2l0.6,0.4c-0.2,0.2-0.4,0.5-0.8,0.9C99.2,45.6,98.9,46,98.7,46.2z"/>
	<path d="M106.3,48.1h3.6c0.4-0.7,0.8-1.4,1.2-2.1l0.6,0.3c-0.3,0.6-0.7,1.2-1.1,1.8h2.1v0.6h-6.4L106.3,48.1L106.3,48.1z
		 M107.6,51.8l0.6,0.3c-0.5,1.1-0.9,1.9-1.3,2.3l-0.6-0.2C106.6,53.7,107,52.9,107.6,51.8z M109.2,49h0.7v1.3h2.5V51h-2.5v3.3
		c0,0.9-0.4,1.3-1.3,1.3c-0.3,0-0.7,0-1.1,0c0-0.2,0-0.4-0.1-0.7c0.3,0,0.7,0,1,0c0.6,0,0.8-0.2,0.8-0.7V51h-2.6v-0.6h2.6L109.2,49
		L109.2,49z M108.9,43.7l0.7-0.2c0.2,0.5,0.4,1,0.6,1.5h2.2v0.6h-5.7v-0.6h2.8C109.2,44.5,109,44.1,108.9,43.7z M107.3,46.3l0.6-0.3
		c0.3,0.5,0.7,1,1,1.6l-0.6,0.3C108,47.3,107.7,46.7,107.3,46.3z M111.7,53.9c-0.3-0.6-0.7-1.2-1.3-1.9l0.5-0.4
		c0.3,0.3,0.6,0.8,1,1.4c0.1,0.2,0.2,0.3,0.3,0.4L111.7,53.9z M111.8,55.2c1.2-1.2,1.7-3.1,1.6-5.7v-4.8c1.4-0.1,2.9-0.2,4.7-0.4
		l0.2,0.7c-1.2,0.2-2.6,0.3-4.2,0.4v3.3h4.6v0.6H117v6.6h-0.7v-6.6h-2.1v0.4c0.1,2.7-0.5,4.8-1.7,6.1
		C112.2,55.5,112,55.4,111.8,55.2z"/>
	<path d="M119.5,47.3h2.3v-2.1c-0.7,0-1.4,0.1-2.1,0.1c0-0.3-0.1-0.5-0.2-0.7c1.7-0.1,3.4-0.2,5-0.4l0.1,0.7c-0.2,0-0.6,0-1.1,0.1
		c-0.5,0-0.9,0.1-1.1,0.1v2.2h2.4v0.7h-2.4v1.7l0.4-0.3c0.9,0.7,1.5,1.3,1.9,1.7l-0.5,0.5c-0.6-0.6-1.2-1.2-1.7-1.7v5.7h-0.7v-6.4
		c-0.6,1.6-1.3,2.9-2.1,4c-0.1-0.3-0.2-0.5-0.4-0.8c1-1.1,1.8-2.6,2.5-4.5h-2.3L119.5,47.3L119.5,47.3z M131,55.5
		c-0.1-0.4-0.3-0.8-0.4-1.3c-1.8,0.1-3.4,0.2-4.7,0.3c-0.3,0-0.6,0-0.9,0.1l-0.4-0.6c0.3-0.3,0.6-0.8,0.8-1.4c1-2.6,1.9-5.6,2.6-8.9
		l0.9,0.1c-1,4-2.1,7.3-3.2,10c0.3,0,0.7-0.1,1.2-0.1c0.5,0,1.6-0.1,3.4-0.3c-0.4-1.2-1-2.8-1.7-4.7l0.7-0.3c1,2.7,1.9,4.9,2.5,6.6
		L131,55.5z"/>
	<path d="M135.5,49.3l1.7-0.6h-4.3v-0.5h5.3v0.6l-2.1,0.9v0.2c0.9-0.1,1.7-0.1,2.5-0.1c0,0.2,0,0.4,0,0.6c-0.3,0-0.7,0-1.2,0
		c-0.6,0-1,0-1.2,0v0.6c0,0.6-0.4,1-1.2,1.1c-0.4,0-0.8,0-1.2,0c0-0.1,0-0.2,0-0.3c0-0.1-0.1-0.2-0.1-0.3c0.4,0,0.8,0,1.2,0
		c0.5,0,0.7-0.2,0.7-0.6v-0.4c-0.3,0-0.8,0.1-1.5,0.1c-0.7,0.1-1.2,0.1-1.5,0.1l-0.1-0.6c0.1,0,0.2,0,0.4,0c0.7,0,1.6-0.1,2.7-0.2
		L135.5,49.3L135.5,49.3z M138.2,52.1h0.7v0.8h4.6v0.6h-4.6v1.1h5.7v0.6h-12.2v-0.6h5.7v-1.1h-4.6v-0.6h4.6V52.1z M135.2,43.7
		l0.6-0.1c0.1,0.1,0.1,0.3,0.2,0.4c0.1,0.2,0.2,0.4,0.2,0.4h2.6V45h-6.2v-0.6h2.9c0-0.1-0.1-0.2-0.1-0.3
		C135.3,43.9,135.2,43.8,135.2,43.7z M133.3,45.7h4.9v1.7h-4.9V45.7z M133.9,46.2V47h3.7v-0.8H133.9z M138.9,45.4h1.4
		c0-0.3,0-0.9,0-1.8h0.6c0,0.5,0,1.1,0,1.8h2.1c0,3.1,0.1,4.8,0.4,5.3c0.1,0.3,0.3,0.4,0.4,0.4c0.2,0,0.3-0.2,0.3-0.6
		c0.1-0.2,0.1-0.5,0.1-0.9c0-0.1,0-0.3,0-0.4c0.2,0.1,0.4,0.2,0.6,0.2c0,0.5-0.1,1-0.2,1.4c-0.1,0.6-0.4,0.9-0.8,0.9
		c-0.4,0-0.7-0.3-1-0.8c-0.3-0.6-0.4-2.3-0.4-5h-1.5c0,1-0.1,1.8-0.3,2.5c0.1,0.1,0.3,0.3,0.6,0.5c0.3,0.3,0.6,0.5,0.8,0.6l-0.4,0.5
		c-0.1-0.1-0.3-0.3-0.5-0.4c-0.2-0.2-0.4-0.4-0.6-0.5c-0.3,0.8-0.9,1.7-1.8,2.6c0,0-0.1-0.1-0.1-0.1c-0.2-0.2-0.3-0.3-0.4-0.4
		c1-0.9,1.6-1.8,1.8-2.6c-0.1-0.1-0.3-0.3-0.6-0.5c-0.3-0.2-0.5-0.4-0.6-0.4l0.4-0.4c0.3,0.3,0.7,0.6,1,0.8c0.2-0.6,0.3-1.3,0.3-2.1
		H139L138.9,45.4L138.9,45.4z"/>
</g>
<path class="st2" d="M25.8,16.8l-3.9-4.4l-3.5,4.4c-4.2,0.6-8.1,2.5-11.3,5.8C-1.2,30.8-1.1,44,7.1,52.3c8.3,8.3,21.6,8.3,29.7,0.2
	S45,31,36.7,22.7C34.2,20.2,29.1,17.8,25.8,16.8z M17.8,41.5C14,39.1,12.7,34,15,30.2s7.5-5.1,11.3-2.8c3.8,2.3,5.1,7.5,2.8,11.3
	C26.6,42.8,21.8,43.9,17.8,41.5z"/>
</svg>
